<svg width="100" height="100" viewBox="0 0 100 100" xmlns="http://www.w3.org/2000/svg">
  <!-- Piggy Bank Character - Neutral Mood -->
  <!-- Body -->
  <ellipse cx="50" cy="55" rx="40" ry="30" fill="#FF6D9F" />
  <!-- Head -->
  <circle cx="50" cy="35" r="25" fill="#FF6D9F" />
  <!-- Ears -->
  <ellipse cx="30" cy="20" rx="10" ry="12" fill="#FF8CAF" transform="rotate(-15 30 20)" />
  <ellipse cx="70" cy="20" rx="10" ry="12" fill="#FF8CAF" transform="rotate(15 70 20)" />
  <!-- Eyes -->
  <circle cx="40" cy="30" r="5" fill="white" />
  <circle cx="60" cy="30" r="5" fill="white" />
  <circle cx="40" cy="30" r="2" fill="black" />
  <circle cx="60" cy="30" r="2" fill="black" />
  <!-- Nose -->
  <ellipse cx="50" cy="40" rx="8" ry="6" fill="#FF5286" />
  <circle cx="46" cy="39" r="2" fill="white" />
  <!-- Slot -->
  <rect x="40" y="60" width="20" height="3" rx="1" fill="#FF417D" />
  <!-- Four Legs -->
  <rect x="25" y="80" width="8" height="15" rx="4" fill="#FF6D9F" />
  <rect x="67" y="80" width="8" height="15" rx="4" fill="#FF6D9F" />
  <rect x="35" y="85" width="8" height="10" rx="4" fill="#FF6D9F" />
  <rect x="57" y="85" width="8" height="10" rx="4" fill="#FF6D9F" />
  <!-- Tail -->
  <path d="M10,60 Q0,50 10,40" stroke="#FF6D9F" stroke-width="4" fill="none" />
</svg>
