<svg width="100" height="100" viewBox="0 0 100 100" xmlns="http://www.w3.org/2000/svg">
  <!-- Piggy Bank Character - Happy Mood -->
  <!-- Body -->
  <ellipse cx="50" cy="55" rx="40" ry="30" fill="#FF6D9F" />
  <!-- Head -->
  <circle cx="50" cy="35" r="25" fill="#FF6D9F" />
  <!-- Ears -->
  <ellipse cx="30" cy="20" rx="10" ry="12" fill="#FF8CAF" transform="rotate(-15 30 20)" />
  <ellipse cx="70" cy="20" rx="10" ry="12" fill="#FF8CAF" transform="rotate(15 70 20)" />
  <!-- Eyes - Happy -->
  <path d="M35,28 Q40,35 45,28" stroke="black" stroke-width="2" fill="none" />
  <path d="M55,28 Q60,35 65,28" stroke="black" stroke-width="2" fill="none" />
  <!-- Nose -->
  <ellipse cx="50" cy="40" rx="8" ry="6" fill="#FF5286" />
  <circle cx="46" cy="39" r="2" fill="white" />
  <!-- Mouth - Smiling -->
  <path d="M40,45 Q50,55 60,45" stroke="#FF417D" stroke-width="2" fill="none" />
  <!-- Slot -->
  <rect x="40" y="60" width="20" height="3" rx="1" fill="#FF417D" />
  <!-- Four Legs -->
  <rect x="25" y="80" width="8" height="15" rx="4" fill="#FF6D9F" />
  <rect x="67" y="80" width="8" height="15" rx="4" fill="#FF6D9F" />
  <rect x="35" y="85" width="8" height="10" rx="4" fill="#FF6D9F" />
  <rect x="57" y="85" width="8" height="10" rx="4" fill="#FF6D9F" />
  <!-- Tail - Wagging -->
  <path d="M10,60 Q5,50 10,40" stroke="#FF6D9F" stroke-width="4" fill="none" />
  <!-- Sparkles for happy mood -->
  <path d="M20,25 L22,20 L24,25 L20,23 L24,23 Z" fill="#FFD700" />
  <path d="M80,25 L82,20 L84,25 L80,23 L84,23 Z" fill="#FFD700" />
</svg>
