<svg width="100" height="100" viewBox="0 0 100 100" xmlns="http://www.w3.org/2000/svg">
  <!-- Robot Character - Happy Mood -->
  <!-- Robot Head -->
  <rect x="30" y="20" width="40" height="30" rx="5" fill="#2196F3" />
  <!-- Antenna with bouncing light -->
  <line x1="50" y1="20" x2="50" y2="10" stroke="#90CAF9" stroke-width="3" />
  <circle cx="50" cy="8" r="4" fill="#4CAF50" /> <!-- Green for happy -->
  <!-- Eyes - happy curved screens -->
  <rect x="37" y="30" width="10" height="8" rx="4" fill="#E3F2FD" />
  <rect x="53" y="30" width="10" height="8" rx="4" fill="#E3F2FD" />
  <path d="M38,35 Q42,31 46,35" stroke="#0D47A1" stroke-width="2" fill="none" />
  <path d="M54,35 Q58,31 62,35" stroke="#0D47A1" stroke-width="2" fill="none" />
  <!-- Mouth - Smiling -->
  <path d="M40,42 Q50,48 60,42" stroke="#BBDEFB" stroke-width="3" fill="none" />
  <!-- Neck -->
  <rect x="45" y="50" width="10" height="5" fill="#90CAF9" />
  <!-- Body -->
  <rect x="25" y="55" width="50" height="30" rx="3" fill="#2196F3" />
  <!-- Control Panel - with happy indicators -->
  <rect x="35" y="60" width="30" height="15" rx="2" fill="#0D47A1" />
  <!-- Control Buttons - all green for happy mood -->
  <circle cx="40" cy="65" r="2" fill="#4CAF50" />
  <circle cx="50" cy="65" r="2" fill="#4CAF50" />
  <circle cx="60" cy="65" r="2" fill="#4CAF50" />
  <!-- Dial pointing up (happy) -->
  <circle cx="50" cy="72" r="4" fill="#BBDEFB" />
  <line x1="50" y1="72" x2="50" y2="68" stroke="#0D47A1" stroke-width="1.5" />
  <!-- Arms - slightly raised in happiness -->
  <rect x="15" y="58" width="10" height="25" rx="3" fill="#90CAF9" transform="rotate(-10 15 58)" />
  <rect x="75" y="58" width="10" height="25" rx="3" fill="#90CAF9" transform="rotate(10 85 58)" />
  <!-- Hands - waving -->
  <circle cx="16" cy="86" r="5" fill="#BBDEFB" />
  <circle cx="84" cy="86" r="5" fill="#BBDEFB" />
  <!-- Legs -->
  <rect x="35" y="85" width="10" height="15" rx="2" fill="#1976D2" />
  <rect x="55" y="85" width="10" height="15" rx="2" fill="#1976D2" />
  <!-- Feet -->
  <rect x="32" y="97" width="16" height="3" rx="1" fill="#0D47A1" />
  <rect x="52" y="97" width="16" height="3" rx="1" fill="#0D47A1" />
  <!-- Happy indicators -->
  <path d="M25,25 L20,20 M30,15 L25,10" stroke="#FFC107" stroke-width="1.5" />
  <path d="M75,25 L80,20 M70,15 L75,10" stroke="#FFC107" stroke-width="1.5" />
</svg>
