<svg width="100" height="100" viewBox="0 0 100 100" xmlns="http://www.w3.org/2000/svg">
  <!-- Robot Character - Neutral Mood -->
  <!-- Robot Head -->
  <rect x="30" y="20" width="40" height="30" rx="5" fill="#2196F3" />
  <!-- Antenna -->
  <line x1="50" y1="20" x2="50" y2="10" stroke="#90CAF9" stroke-width="3" />
  <circle cx="50" cy="8" r="4" fill="#F44336" />
  <!-- Eyes -->
  <rect x="37" y="30" width="10" height="8" rx="2" fill="#E3F2FD" />
  <rect x="53" y="30" width="10" height="8" rx="2" fill="#E3F2FD" />
  <circle cx="42" cy="34" r="2" fill="#0D47A1" />
  <circle cx="58" cy="34" r="2" fill="#0D47A1" />
  <!-- Mouth -->
  <rect x="40" y="42" width="20" height="3" rx="1" fill="#BBDEFB" />
  <!-- Neck -->
  <rect x="45" y="50" width="10" height="5" fill="#90CAF9" />
  <!-- Body -->
  <rect x="25" y="55" width="50" height="30" rx="3" fill="#2196F3" />
  <!-- Control Panel -->
  <rect x="35" y="60" width="30" height="15" rx="2" fill="#0D47A1" />
  <!-- Control Buttons -->
  <circle cx="40" cy="65" r="2" fill="#F44336" />
  <circle cx="50" cy="65" r="2" fill="#4CAF50" />
  <circle cx="60" cy="65" r="2" fill="#FFC107" />
  <!-- Dial -->
  <circle cx="50" cy="72" r="4" fill="#BBDEFB" />
  <line x1="50" y1="72" x2="53" y2="72" stroke="#0D47A1" stroke-width="1.5" />
  <!-- Arms -->
  <rect x="15" y="60" width="10" height="25" rx="3" fill="#90CAF9" />
  <rect x="75" y="60" width="10" height="25" rx="3" fill="#90CAF9" />
  <!-- Hands -->
  <circle cx="20" cy="90" r="5" fill="#BBDEFB" />
  <circle cx="80" cy="90" r="5" fill="#BBDEFB" />
  <!-- Legs -->
  <rect x="35" y="85" width="10" height="15" rx="2" fill="#1976D2" />
  <rect x="55" y="85" width="10" height="15" rx="2" fill="#1976D2" />
  <!-- Feet -->
  <rect x="32" y="97" width="16" height="3" rx="1" fill="#0D47A1" />
  <rect x="52" y="97" width="16" height="3" rx="1" fill="#0D47A1" />
</svg>
