<svg width="100" height="100" viewBox="0 0 100 100" xmlns="http://www.w3.org/2000/svg">
  <!-- Robot Character - Excited Mood -->
  <!-- Robot Head - tilted slightly in excitement -->
  <rect x="30" y="20" width="40" height="30" rx="5" fill="#2196F3" transform="rotate(5 50 35)" />
  <!-- Antenna with rapidly blinking light -->
  <line x1="50" y1="20" x2="50" y2="5" stroke="#90CAF9" stroke-width="3" transform="rotate(5 50 35)" />
  <circle cx="50" cy="3" r="5" fill="#F44336" />
  <circle cx="50" cy="3" r="8" fill="none" stroke="#FFEB3B" stroke-width="1.5" />
  <circle cx="50" cy="3" r="12" fill="none" stroke="#FFEB3B" stroke-width="1" />
  <!-- Eyes - wide with excitement -->
  <rect x="36" y="29" width="12" height="10" rx="5" fill="#E3F2FD" transform="rotate(5 50 35)" />
  <rect x="52" y="31" width="12" height="10" rx="5" fill="#E3F2FD" transform="rotate(5 50 35)" />
  <circle cx="42" cy="34" r="4" fill="#0D47A1" transform="rotate(5 50 35)" />
  <circle cx="58" cy="36" r="4" fill="#0D47A1" transform="rotate(5 50 35)" />
  <!-- Eyebrows raised in excitement -->
  <path d="M36,25 L48,23" stroke="#90CAF9" stroke-width="2" />
  <path d="M52,25 L64,23" stroke="#90CAF9" stroke-width="2" />
  <!-- Mouth - Open in excitement -->
  <rect x="40" y="44" width="20" height="8" rx="4" fill="#BBDEFB" transform="rotate(5 50 35)" />
  <line x1="43" y1="48" x2="57" y2="48" stroke="#0D47A1" stroke-width="1.5" />
  <!-- Neck -->
  <rect x="45" y="50" width="10" height="5" fill="#90CAF9" />
  <!-- Body - bouncing up slightly -->
  <rect x="25" y="54" width="50" height="30" rx="3" fill="#2196F3" />
  <!-- Control Panel - with flashing lights -->
  <rect x="35" y="59" width="30" height="15" rx="2" fill="#0D47A1" />
  <!-- Control Buttons - flashing colors -->
  <circle cx="40" cy="64" r="3" fill="#F44336" />
  <circle cx="50" cy="64" r="3" fill="#FFEB3B" />
  <circle cx="60" cy="64" r="3" fill="#4CAF50" />
  <!-- Dial spinning -->
  <circle cx="50" cy="71" r="4" fill="#BBDEFB" />
  <path d="M50,71 L54,73 L50,75 L46,73 Z" fill="#0D47A1" transform="rotate(45 50 71)" />
  <!-- Arms - raised high in excitement -->
  <rect x="15" y="56" width="10" height="25" rx="3" fill="#90CAF9" transform="rotate(-30 15 65)" />
  <rect x="75" y="56" width="10" height="25" rx="3" fill="#90CAF9" transform="rotate(30 85 65)" />
  <!-- Hands waving excitedly -->
  <circle cx="6" cy="76" r="5" fill="#BBDEFB" />
  <circle cx="94" cy="76" r="5" fill="#BBDEFB" />
  <!-- Legs - bouncing stance -->
  <rect x="35" y="84" width="10" height="15" rx="3" fill="#1976D2" transform="rotate(-5 40 84)" />
  <rect x="55" y="84" width="10" height="15" rx="3" fill="#1976D2" transform="rotate(5 60 84)" />
  <!-- Feet -->
  <rect x="31" y="96" width="16" height="4" rx="2" fill="#0D47A1" transform="rotate(-5 39 98)" />
  <rect x="53" y="96" width="16" height="4" rx="2" fill="#0D47A1" transform="rotate(5 61 98)" />
  <!-- Excitement indicators -->
  <path d="M15,15 L10,10 M25,10 L20,5" stroke="#FFEB3B" stroke-width="1.5" />
  <path d="M75,15 L80,10 M85,15 L90,10" stroke="#FFEB3B" stroke-width="1.5" />
  <path d="M85,35 L90,35 M85,40 L90,40" stroke="#FFEB3B" stroke-width="1.5" />
  <path d="M15,35 L10,35 M15,40 L10,40" stroke="#FFEB3B" stroke-width="1.5" />
</svg>
