<svg width="100" height="100" viewBox="0 0 100 100" xmlns="http://www.w3.org/2000/svg">
  <!-- Unicorn Character - Happy Mood -->
  <!-- Body -->
  <ellipse cx="50" cy="65" rx="35" ry="25" fill="#E1BEE7" />
  <!-- Head -->
  <circle cx="25" cy="40" r="15" fill="#E1BEE7" />
  <!-- Ears -->
  <path d="M15,32 L10,20 L20,25 Z" fill="#CE93D8" />
  <path d="M20,28 L15,15 L25,20 Z" fill="#CE93D8" />
  <!-- Horn with sparkles -->
  <path d="M25,25 L15,5" stroke="#FFC107" stroke-width="4" stroke-linecap="round" />
  <circle cx="15" cy="5" r="2" fill="#FFEB3B" />
  <path d="M13,2 L17,8 M12,5 L18,5" stroke="#FFEB3B" stroke-width="1" />
  <!-- Mane with rainbow colors -->
  <path d="M30,30 C45,20 55,30 60,45" stroke="#9C27B0" stroke-width="8" fill="none" />
  <path d="M30,30 C45,20 55,30 60,45" stroke="#2196F3" stroke-width="6" fill="none" />
  <path d="M30,30 C45,20 55,30 60,45" stroke="#4CAF50" stroke-width="4" fill="none" />
  <path d="M30,30 C45,20 55,30 60,45" stroke="#FFC107" stroke-width="2" fill="none" />
  <!-- Eyes - happy curved -->
  <circle cx="20" cy="38" r="3" fill="white" />
  <path d="M17,37 Q20,41 23,37" stroke="black" stroke-width="1.5" fill="none" />
  <!-- Nose -->
  <ellipse cx="12" cy="42" rx="3" ry="2" fill="#CE93D8" />
  <!-- Mouth - smiling -->
  <path d="M15,45 Q20,48 25,45" stroke="#7B1FA2" stroke-width="1.5" fill="none" />
  <!-- Tail with rainbow colors -->
  <path d="M85,65 C95,55 95,45 90,40" stroke="#9C27B0" stroke-width="6" fill="none" />
  <path d="M85,65 C95,55 95,45 90,40" stroke="#2196F3" stroke-width="4" fill="none" />
  <path d="M85,65 C95,55 95,45 90,40" stroke="#4CAF50" stroke-width="2" fill="none" />
  <!-- Legs -->
  <rect x="30" y="85" width="5" height="15" rx="2.5" fill="#E1BEE7" />
  <rect x="40" y="85" width="5" height="15" rx="2.5" fill="#E1BEE7" />
  <rect x="55" y="85" width="5" height="15" rx="2.5" fill="#E1BEE7" />
  <rect x="65" y="85" width="5" height="15" rx="2.5" fill="#E1BEE7" />
  <!-- Happy stars -->
  <path d="M35,30 L37,25 L39,30 L35,28 L39,28 Z" fill="#FFEB3B" />
  <path d="M70,50 L72,45 L74,50 L70,48 L74,48 Z" fill="#FFEB3B" />
</svg>
