<svg width="100" height="100" viewBox="0 0 100 100" xmlns="http://www.w3.org/2000/svg">
  <!-- Unicorn Character - Excited Mood -->
  <!-- Body - slightly raised in excitement -->
  <ellipse cx="50" cy="63" rx="35" ry="25" fill="#E1BEE7" />
  <!-- Head - slightly raised -->
  <circle cx="25" cy="38" r="15" fill="#E1BEE7" />
  <!-- Ears - perked up -->
  <path d="M15,30 L8,15 L20,23 Z" fill="#CE93D8" />
  <path d="M20,26 L13,10 L25,18 Z" fill="#CE93D8" />
  <!-- Horn with extra sparkles -->
  <path d="M25,23 L15,3" stroke="#FFC107" stroke-width="5" stroke-linecap="round" />
  <circle cx="15" cy="3" r="3" fill="#FFEB3B" />
  <path d="M12,0 L18,6 M11,3 L19,3 M15,-2 L15,8" stroke="#FFEB3B" stroke-width="1.5" />
  <!-- More sparkles around horn -->
  <path d="M20,15 L22,12 L24,15 L20,14 L24,14 Z" fill="#FFEB3B" />
  <path d="M10,15 L12,12 L14,15 L10,14 L14,14 Z" fill="#FFEB3B" />
  <!-- Mane with vibrant rainbow colors -->
  <path d="M30,28 C45,18 55,28 60,43" stroke="#9C27B0" stroke-width="10" fill="none" />
  <path d="M30,28 C45,18 55,28 60,43" stroke="#2196F3" stroke-width="8" fill="none" />
  <path d="M30,28 C45,18 55,28 60,43" stroke="#4CAF50" stroke-width="6" fill="none" />
  <path d="M30,28 C45,18 55,28 60,43" stroke="#FFC107" stroke-width="4" fill="none" />
  <path d="M30,28 C45,18 55,28 60,43" stroke="#F44336" stroke-width="2" fill="none" />
  <!-- Eyes - wide with excitement -->
  <circle cx="20" cy="36" r="4" fill="white" />
  <circle cx="20" cy="36" r="2" fill="black" />
  <!-- Eyebrows raised in excitement -->
  <path d="M15,30 L25,30" stroke="#7B1FA2" stroke-width="1.5" />
  <!-- Nose -->
  <ellipse cx="12" cy="40" rx="3" ry="2" fill="#CE93D8" />
  <!-- Mouth - open in excitement -->
  <ellipse cx="20" cy="45" rx="5" ry="4" fill="#7B1FA2" />
  <ellipse cx="20" cy="45" rx="3" ry="2" fill="#E1BEE7" />
  <!-- Tail with vibrant rainbow colors, bouncing -->
  <path d="M85,63 C100,50 95,35 90,30" stroke="#9C27B0" stroke-width="8" fill="none" />
  <path d="M85,63 C100,50 95,35 90,30" stroke="#2196F3" stroke-width="6" fill="none" />
  <path d="M85,63 C100,50 95,35 90,30" stroke="#4CAF50" stroke-width="4" fill="none" />
  <path d="M85,63 C100,50 95,35 90,30" stroke="#FFC107" stroke-width="2" fill="none" />
  <!-- Legs - in bouncing position -->
  <rect x="30" y="83" width="5" height="15" rx="2.5" fill="#E1BEE7" />
  <rect x="40" y="83" width="5" height="15" rx="2.5" fill="#E1BEE7" />
  <rect x="55" y="83" width="5" height="15" rx="2.5" fill="#E1BEE7" />
  <rect x="65" y="83" width="5" height="15" rx="2.5" fill="#E1BEE7" />
  <!-- Excitement stars and sparkles all around -->
  <path d="M35,25 L37,20 L39,25 L35,23 L39,23 Z" fill="#FFEB3B" />
  <path d="M70,40 L72,35 L74,40 L70,38 L74,38 Z" fill="#FFEB3B" />
  <path d="M50,15 L52,10 L54,15 L50,13 L54,13 Z" fill="#FFEB3B" />
  <path d="M80,20 L82,15 L84,20 L80,18 L84,18 Z" fill="#FFEB3B" />
  <path d="M40,10 L42,5 L44,10 L40,8 L44,8 Z" fill="#FFEB3B" />
  <!-- Motion lines -->
  <path d="M90,50 L95,50 M90,55 L95,55 M90,60 L95,60" stroke="#FFEB3B" stroke-width="1.5" />
  <path d="M10,50 L5,50 M10,55 L5,55 M10,60 L5,60" stroke="#FFEB3B" stroke-width="1.5" />
</svg>
