<svg width="100" height="100" viewBox="0 0 100 100" xmlns="http://www.w3.org/2000/svg">
  <!-- Unicorn Character - Neutral Mood -->
  <!-- Body -->
  <ellipse cx="50" cy="65" rx="35" ry="25" fill="#E1BEE7" />
  <!-- Head -->
  <circle cx="25" cy="40" r="15" fill="#E1BEE7" />
  <!-- Ears -->
  <path d="M15,32 L10,20 L20,25 Z" fill="#CE93D8" />
  <path d="M20,28 L15,15 L25,20 Z" fill="#CE93D8" />
  <!-- Horn -->
  <path d="M25,25 L15,5" stroke="#FFC107" stroke-width="4" stroke-linecap="round" />
  <!-- Mane -->
  <path d="M30,30 C45,20 55,30 60,45" stroke="#9C27B0" stroke-width="8" fill="none" />
  <!-- Eyes -->
  <circle cx="20" cy="38" r="3" fill="white" />
  <circle cx="20" cy="38" r="1.5" fill="black" />
  <!-- Nose -->
  <ellipse cx="12" cy="42" rx="3" ry="2" fill="#CE93D8" />
  <!-- Mouth -->
  <line x1="15" y1="45" x2="20" y2="45" stroke="#7B1FA2" stroke-width="1.5" />
  <!-- Tail -->
  <path d="M85,65 C95,55 95,45 90,40" stroke="#9C27B0" stroke-width="6" fill="none" />
  <!-- Legs -->
  <rect x="30" y="85" width="5" height="15" rx="2.5" fill="#E1BEE7" />
  <rect x="40" y="85" width="5" height="15" rx="2.5" fill="#E1BEE7" />
  <rect x="55" y="85" width="5" height="15" rx="2.5" fill="#E1BEE7" />
  <rect x="65" y="85" width="5" height="15" rx="2.5" fill="#E1BEE7" />
</svg>
