<svg width="60" height="80" viewBox="0 0 60 80" fill="none" xmlns="http://www.w3.org/2000/svg">
  <rect x="25" y="60" width="10" height="20" fill="#8D6E63" />
  <path d="M30 60C30 60 10 45 5 30C0 15 15 10 25 20C25 20 25 5 40 5C55 5 60 25 40 35C40 35 50 40 45 50C40 60 30 60 30 60Z" fill="#4CAF50" stroke="#388E3C" stroke-width="1" />
  <circle cx="20" cy="25" r="6" fill="#FFD700" stroke="#FFA000" stroke-width="1" />
  <circle cx="20" cy="25" r="4" fill="#FFECB3" />
  <text x="20" y="28" font-family="Arial" font-size="6" font-weight="bold" text-anchor="middle" fill="#FFA000">£</text>
  <circle cx="40" cy="40" r="6" fill="#FFD700" stroke="#FFA000" stroke-width="1" />
  <circle cx="40" cy="40" r="4" fill="#FFECB3" />
  <text x="40" y="43" font-family="Arial" font-size="6" font-weight="bold" text-anchor="middle" fill="#FFA000">£</text>
  <circle cx="30" cy="15" r="6" fill="#FFD700" stroke="#FFA000" stroke-width="1" />
  <circle cx="30" cy="15" r="4" fill="#FFECB3" />
  <text x="30" y="18" font-family="Arial" font-size="6" font-weight="bold" text-anchor="middle" fill="#FFA000">£</text>
</svg>
