<svg width="40" height="40" viewBox="0 0 40 40" fill="none" xmlns="http://www.w3.org/2000/svg">
  <path d="M12 32C10.9 32 9.99 32.9 9.99 34C9.99 35.1 10.9 36 12 36C13.1 36 14 35.1 14 34C14 32.9 13.1 32 12 32ZM4 4V8H8L13.6 19.59L11.25 23.73C10.9 24.25 10.75 24.87 10.75 25.5C10.75 27.71 12.54 29.5 14.75 29.5H30V25.5H15.36C15.11 25.5 14.9 25.3 14.9 25.05L14.95 24.85L16.5 22H25.44C26.25 22 26.96 21.59 27.34 20.95L32.91 11.27C33.05 11.05 33.11 10.8 33.11 10.53C33.11 9.68 32.41 9 31.54 9H10.72L9.11 6H4ZM28 32C26.9 32 25.99 32.9 25.99 34C25.99 35.1 26.9 36 28 36C29.1 36 30 35.1 30 34C30 32.9 29.1 32 28 32Z" fill="#FF5252"/>
</svg>
